<?xml version="1.0" encoding="utf-8"?>
<svg version="1.1" xmlns:xlink="http://www.w3.org/1999/xlink" width="276px" height="32px" viewBox="0 0  276 32" xmlns="http://www.w3.org/2000/svg">
  <path d="M 0.5 5  A 4.5 4.5 0 0 1 5 0.5 L 271 0.5  A 4.5 4.5 0 0 1 275.5 5 L 275.5 27  A 4.5 4.5 0 0 1 271 31.5 L 5 31.5  A 4.5 4.5 0 0 1 0.5 27 L 0.5 5  Z " fill-rule="nonzero" fill="#f6f6f6" stroke="none" />
  <path d="M 0.5 5  A 4.5 4.5 0 0 1 5 0.5 L 271 0.5  A 4.5 4.5 0 0 1 275.5 5 L 275.5 27  A 4.5 4.5 0 0 1 271 31.5 L 5 31.5  A 4.5 4.5 0 0 1 0.5 27 L 0.5 5  Z " stroke-width="1" stroke="#c5c5c5" fill="none" />
</svg>