<?xml version="1.0" encoding="utf-8"?>
<svg version="1.1" xmlns:xlink="http://www.w3.org/1999/xlink" width="17px" height="17px" viewBox="418 310.5  17 17" xmlns="http://www.w3.org/2000/svg">
  <path d="M 418.5 313.5  A 2.5 2.5 0 0 1 421 311 L 432 311  A 2.5 2.5 0 0 1 434.5 313.5 L 434.5 324.5  A 2.5 2.5 0 0 1 432 327 L 421 327  A 2.5 2.5 0 0 1 418.5 324.5 L 418.5 313.5  Z " fill-rule="nonzero" fill="#ffffff" stroke="none" />
  <path d="M 418.5 313.5  A 2.5 2.5 0 0 1 421 311 L 432 311  A 2.5 2.5 0 0 1 434.5 313.5 L 434.5 324.5  A 2.5 2.5 0 0 1 432 327 L 421 327  A 2.5 2.5 0 0 1 418.5 324.5 L 418.5 313.5  Z " stroke-width="1" stroke="#797979" fill="none" />
  <path d="M 421.642857142857 319  L 425.285714285714 322.642857142857  L 431.357142857143 314.142857142857  " stroke-width="3.64285714285714" stroke="#797979" fill="none" />
</svg>