<?xml version="1.0" encoding="utf-8"?>
<svg version="1.1" xmlns:xlink="http://www.w3.org/1999/xlink" width="17px" height="17px" viewBox="418 380.5  17 17" xmlns="http://www.w3.org/2000/svg">
  <path d="M 418.5 383.5  A 2.5 2.5 0 0 1 421 381 L 432 381  A 2.5 2.5 0 0 1 434.5 383.5 L 434.5 394.5  A 2.5 2.5 0 0 1 432 397 L 421 397  A 2.5 2.5 0 0 1 418.5 394.5 L 418.5 383.5  Z " fill-rule="nonzero" fill="#f0f0f0" stroke="none" />
  <path d="M 418.5 383.5  A 2.5 2.5 0 0 1 421 381 L 432 381  A 2.5 2.5 0 0 1 434.5 383.5 L 434.5 394.5  A 2.5 2.5 0 0 1 432 397 L 421 397  A 2.5 2.5 0 0 1 418.5 394.5 L 418.5 383.5  Z " stroke-width="1" stroke="#797979" fill="none" />
</svg>