<?xml version="1.0" encoding="utf-8"?>
<svg version="1.1" xmlns:xlink="http://www.w3.org/1999/xlink" width="17px" height="17px" viewBox="418 275.5  17 17" xmlns="http://www.w3.org/2000/svg">
  <path d="M 418.5 278.5  A 2.5 2.5 0 0 1 421 276 L 432 276  A 2.5 2.5 0 0 1 434.5 278.5 L 434.5 289.5  A 2.5 2.5 0 0 1 432 292 L 421 292  A 2.5 2.5 0 0 1 418.5 289.5 L 418.5 278.5  Z " fill-rule="nonzero" fill="#f0f0f0" stroke="none" />
  <path d="M 418.5 278.5  A 2.5 2.5 0 0 1 421 276 L 432 276  A 2.5 2.5 0 0 1 434.5 278.5 L 434.5 289.5  A 2.5 2.5 0 0 1 432 292 L 421 292  A 2.5 2.5 0 0 1 418.5 289.5 L 418.5 278.5  Z " stroke-width="1" stroke="#797979" fill="none" />
</svg>