<?xml version="1.0" encoding="utf-8"?>
<svg version="1.1" xmlns:xlink="http://www.w3.org/1999/xlink" width="22px" height="21px" xmlns="http://www.w3.org/2000/svg">
  <g transform="matrix(1 0 0 1 -518 -53 )">
    <path d="M 17.14453125 11.990234375  C 17.3259548611111 11.8170572916667  17.4166666666667 11.6119791666667  17.4166666666667 11.375  L 17.4166666666667 9.625  C 17.4166666666667 9.38802083333333  17.3259548611111 9.18294270833333  17.14453125 9.009765625  C 16.9631076388889 8.83658854166667  16.7482638888889 8.75  16.5 9  L 5.5 9  C 5.25173611111111 8.75  5.03689236111111 8.83658854166667  4.85546875 9.009765625  C 4.67404513888889 9.18294270833333  4.58333333333333 9.38802083333333  4.58333333333333 9.625  L 4.58333333333333 11.375  C 4.58333333333333 11.6119791666667  4.67404513888889 11.8170572916667  4.85546875 11.990234375  C 5.03689236111111 12.1634114583333  5.25173611111111 12.25  5.5 12  L 16.5 12  C 16.7482638888889 12.25  16.9631076388889 12.1634114583333  17.14453125 11.990234375  Z M 20.5247395833333 5.2294921875  C 21.5082465277778 6.83821614583333  22 8.59505208333333  22 10.5  C 22 12.4049479166667  21.5082465277778 14.1617838541667  20.5247395833333 15.7705078125  C 19.5412326388889 17.3792317708333  18.2068142361111 18.6529947916667  16.521484375 19.591796875  C 14.8361545138889 20.5305989583333  12.9956597222222 21  11 21  C 9.00434027777778 21  7.16384548611111 20.5305989583333  5.478515625 19.591796875  C 3.79318576388889 18.6529947916667  2.45876736111111 17.3792317708333  1.47526041666667 15.7705078125  C 0.491753472222222 14.1617838541667  0 12.4049479166667  0 10.5  C 0 8.59505208333333  0.491753472222222 6.83821614583333  1.47526041666667 5.2294921875  C 2.45876736111111 3.62076822916667  3.79318576388889 2.34700520833333  5.478515625 1.408203125  C 7.16384548611111 0.469401041666665  9.00434027777778 0  11 0  C 12.9956597222222 0  14.8361545138889 0.469401041666665  16.521484375 1.408203125  C 18.2068142361111 2.34700520833333  19.5412326388889 3.62076822916667  20.5247395833333 5.2294921875  Z " fill-rule="nonzero" fill="#ef2828" stroke="none" transform="matrix(1 0 0 1 518 53 )" />
  </g>
</svg>