<?xml version="1.0" encoding="utf-8"?>
<svg version="1.1" xmlns:xlink="http://www.w3.org/1999/xlink" width="14px" height="14px" xmlns="http://www.w3.org/2000/svg">
  <g transform="matrix(1 0 0 1 -557 -302 )">
    <path d="M 564 302  C 567.92 302  571 305.08  571 309  C 571 312.92  567.92 316  564 316  C 560.08 316  557 312.92  557 309  C 557 305.08  560.08 302  564 302  Z " fill-rule="nonzero" fill="#ffffff" stroke="none" />
    <path d="M 564 302.5  C 567.64 302.5  570.5 305.36  570.5 309  C 570.5 312.64  567.64 315.5  564 315.5  C 560.36 315.5  557.5 312.64  557.5 309  C 557.5 305.36  560.36 302.5  564 302.5  Z " stroke-width="1" stroke="#2e8ff4" fill="none" />
  </g>
</svg>