<?xml version="1.0" encoding="utf-8"?>
<svg version="1.1" xmlns:xlink="http://www.w3.org/1999/xlink" width="14px" height="14px" xmlns="http://www.w3.org/2000/svg">
  <g transform="matrix(1 0 0 1 -461 -302 )">
    <path d="M 468 302  C 471.92 302  475 305.08  475 309  C 475 312.92  471.92 316  468 316  C 464.08 316  461 312.92  461 309  C 461 305.08  464.08 302  468 302  Z " fill-rule="nonzero" fill="#ffffff" stroke="none" />
    <path d="M 468 302.5  C 471.64 302.5  474.5 305.36  474.5 309  C 474.5 312.64  471.64 315.5  468 315.5  C 464.36 315.5  461.5 312.64  461.5 309  C 461.5 305.36  464.36 302.5  468 302.5  Z " stroke-width="1" stroke="#dcdfe6" fill="none" />
  </g>
</svg>