<?xml version="1.0" encoding="utf-8"?>
<svg version="1.1" xmlns:xlink="http://www.w3.org/1999/xlink" width="30px" height="18px" xmlns="http://www.w3.org/2000/svg">
  <g transform="matrix(1 0 0 1 -581 -157 )">
    <path d="M 29.458064516129 2.48484848484849  C 29.8193548387097 2.76767676767677  30 3.11111111111111  30 3.51515151515152  C 30 3.91919191919192  29.8193548387097 4.26262626262626  29.458064516129 4.54545454545455  L 15.4451612903226 15.5151515151515  L 12.8129032258065 17.5757575757576  C 12.4516129032258 17.8585858585859  12.0129032258065 18  11.4967741935484 18  C 10.9806451612903 18  10.541935483871 17.8585858585859  10.1806451612903 17.5757575757576  L 7.54838709677419 15.5151515151515  L 0.541935483870968 10.030303030303  C 0.180645161290323 9.74747474747475  0 9.4040404040404  0 9  C 0 8.5959595959596  0.180645161290323 8.25252525252525  0.541935483870968 7.96969696969697  L 3.1741935483871 5.90909090909091  C 3.53548387096774 5.62626262626263  3.9741935483871 5.48484848484848  4.49032258064516 5.48484848484848  C 5.00645161290323 5.48484848484848  5.44516129032258 5.62626262626263  5.80645161290323 5.90909090909091  L 11.4967741935484 10.3787878787879  L 24.1935483870968 0.424242424242424  C 24.5548387096774 0.141414141414141  24.9935483870968 0  25.5096774193548 0  C 26.0258064516129 0  26.4645161290323 0.141414141414141  26.8258064516129 0.424242424242424  L 29.458064516129 2.48484848484849  Z " fill-rule="nonzero" fill="#ff3a3a" stroke="none" transform="matrix(1 0 0 1 581 157 )" />
  </g>
</svg>