<?xml version="1.0" encoding="utf-8"?>
<svg version="1.1" xmlns:xlink="http://www.w3.org/1999/xlink" width="30px" height="19px" xmlns="http://www.w3.org/2000/svg">
  <g transform="matrix(1 0 0 1 -489 -155 )">
    <path d="M 29.458064516129 2.62289562289562  C 29.8193548387097 2.92143658810325  30 3.28395061728395  30 3.71043771043771  C 30 4.13692480359147  29.8193548387097 4.49943883277216  29.458064516129 4.7979797979798  L 15.4451612903226 16.3771043771044  L 12.8129032258065 18.5521885521886  C 12.4516129032258 18.8507295173962  12.0129032258065 19  11.4967741935484 19  C 10.9806451612903 19  10.541935483871 18.8507295173962  10.1806451612903 18.5521885521886  L 7.54838709677419 16.3771043771044  L 0.541935483870968 10.5875420875421  C 0.180645161290323 10.2890011223345  0 9.92648709315376  0 9.5  C 0 9.07351290684624  0.180645161290323 8.71099887766554  0.541935483870968 8.41245791245791  L 3.1741935483871 6.23737373737374  C 3.53548387096774 5.9388327721661  3.9741935483871 5.78956228956229  4.49032258064516 5.78956228956229  C 5.00645161290323 5.78956228956229  5.44516129032258 5.9388327721661  5.80645161290323 6.23737373737374  L 11.4967741935484 10.9553872053872  L 24.1935483870968 0.447811447811448  C 24.5548387096774 0.149270482603815  24.9935483870968 0  25.5096774193548 0  C 26.0258064516129 0  26.4645161290323 0.149270482603815  26.8258064516129 0.447811447811448  L 29.458064516129 2.62289562289562  Z " fill-rule="nonzero" fill="#ff3a3a" stroke="none" transform="matrix(1 0 0 1 489 155 )" />
  </g>
</svg>