<?xml version="1.0" encoding="utf-8"?>
<svg version="1.1" xmlns:xlink="http://www.w3.org/1999/xlink" width="29px" height="29px" xmlns="http://www.w3.org/2000/svg">
  <g transform="matrix(1 0 0 1 -1062 -69 )">
    <path d="M 27.6444759206799 0  C 28.2195467422096 0  28.6234655335222 0.267755681818183  28.8562322946176 0.803267045454546  C 29.0889990557129 1.36624053030303  28.9931539187913 1.84682765151515  28.5686968838527 2.24502840909091  L 18 12.3991477272727  L 18 27.6818181818182  C 18.443342776204 28.2585227272727  18.1763456090652 28.6635890151515  17.6423512747875 28.8970170454545  C 17.4643531633617 28.9656723484848  17.2932011331445 29  17.128895184136 29  C 16.7592067988669 29  16.4511331444759 28.8695549242424  16.2046742209632 28.6086647727273  L 10.9468838526912 23.3359375  C 10.6867327667611 23.0750473484848  10.556657223796 22.7660984848485  11 22.4090909090909  L 11 12.3991477272727  L 0.431303116147309 2.24502840909091  C 0.00684608120868743 1.84682765151515  -0.0889990557129367 1.36624053030303  0.143767705382436 0.803267045454546  C 0.376534466477809 0.267755681818183  0.780453257790368 0  1.35552407932011 0  L 27.6444759206799 0  Z " fill-rule="nonzero" fill="#646464" stroke="none" transform="matrix(1 0 0 1 1062 69 )" />
  </g>
</svg>