<?xml version="1.0" encoding="utf-8"?>
<svg version="1.1" xmlns:xlink="http://www.w3.org/1999/xlink" width="64px" height="54px" xmlns="http://www.w3.org/2000/svg">
  <g transform="matrix(1 0 0 1 -354 -245 )">
    <path d="M 386 245  C 403.92 245  418 256.88  418 272  C 418 287.12  403.92 299  386 299  C 368.08 299  354 287.12  354 272  C 354 256.88  368.08 245  386 245  Z " fill-rule="nonzero" fill="#e5dede" stroke="none" />
    <path d="M 386 245.5  C 403.64 245.5  417.5 257.16  417.5 272  C 417.5 286.84  403.64 298.5  386 298.5  C 368.36 298.5  354.5 286.84  354.5 272  C 354.5 257.16  368.36 245.5  386 245.5  Z " stroke-width="1" stroke="#f4e9e9" fill="none" />
  </g>
</svg>