<?xml version="1.0" encoding="utf-8"?>
<svg version="1.1" xmlns:xlink="http://www.w3.org/1999/xlink" width="29px" height="20px" xmlns="http://www.w3.org/2000/svg">
  <g transform="matrix(1 0 0 1 -434 -264 )">
    <path d="M 28.2710597826087 8.84467265725289  C 28.7570199275362 9.14420196833547  29 9.52931108258451  29 10  C 29 10.4621309370988  28.7570199275362 10.8515190415062  28.2710597826087 11.1681643132221  L 15.445652173913 19.5250320924262  C 14.9334239130435 19.8416773641421  14.3358242753623 20  13.6528532608696 20  C 12.9830163043478 20  12.3919836956522 19.8416773641421  11.8797554347826 19.5250320924262  L 10.4021739130435 18.5622593068036  C 9.90307971014493 18.2370560547711  9.65353260869565 17.8476679503637  9.65353260869565 17.3940949935815  C 9.65353260869565 16.9405220367993  9.90307971014493 16.551133932392  10.4021739130435 16.2259306803594  L 16.1745923913043 12.4646983311938  L 2.30502717391304 12.4646983311938  C 1.62205615942029 12.4646983311938  1.06714221014493 12.3042362002567  0.640285326086957 11.9833119383825  C 0.213428442028985 11.6623876765083  0 11.2751390671801  0 10.8215661103979  L 0 9.17843388960205  C 0 8.72486093281985  0.213428442028985 8.33761232349166  0.640285326086957 8.01668806161746  C 1.06714221014493 7.69576379974326  1.62205615942029 7.53530166880616  2.30502717391304 7.53530166880616  L 16.1745923913043 7.53530166880616  L 10.4021739130435 3.7612323491656  C 9.90307971014493 3.45314505776637  9.65353260869565 3.06803594351733  9.65353260869565 2.60590500641849  C 9.65353260869565 2.14377406931964  9.90307971014493 1.7586649550706  10.4021739130435 1.45057766367137  L 11.8797554347826 0.487804878048781  C 12.3788496376812 0.162601626016259  12.9698822463768 0  13.6528532608696 0  C 14.3489583333333 0  14.9465579710145 0.162601626016259  15.445652173913 0.487804878048781  L 28.2710597826087 8.84467265725289  Z " fill-rule="nonzero" fill="#000000" stroke="none" transform="matrix(1 0 0 1 434 264 )" />
  </g>
</svg>