<?xml version="1.0" encoding="utf-8"?>
<svg version="1.1" xmlns:xlink="http://www.w3.org/1999/xlink" width="381px" height="35px" xmlns="http://www.w3.org/2000/svg">
  <defs>
    <mask fill="white" id="clip9">
      <path d="M 0 30  L 0 5  C 0 2.2  2.76633663366337 0  6.28712871287129 0  L 345.792079207921 0  C 349.312871287129 0  352.079207920792 2.2  352.079207920792 5  L 352.079207920792 11.2827004219404  L 380.761248276723 22.7594936708874  L 352.079207920792 25.122362869199  L 352.079207920792 30  C 352.079207920792 32.8  349.312871287129 35  345.792079207921 35  L 6.28712871287129 35  C 2.76633663366337 35  0 32.8  0 30  Z " fill-rule="evenodd" />
    </mask>
  </defs>
  <g transform="matrix(1 0 0 1 -5 -13 )">
    <path d="M 0 30  L 0 5  C 0 2.2  2.76633663366337 0  6.28712871287129 0  L 345.792079207921 0  C 349.312871287129 0  352.079207920792 2.2  352.079207920792 5  L 352.079207920792 11.2827004219404  L 380.761248276723 22.7594936708874  L 352.079207920792 25.122362869199  L 352.079207920792 30  C 352.079207920792 32.8  349.312871287129 35  345.792079207921 35  L 6.28712871287129 35  C 2.76633663366337 35  0 32.8  0 30  Z " fill-rule="nonzero" fill="#ffffff" stroke="none" transform="matrix(1 0 0 1 5 13 )" />
    <path d="M 0 30  L 0 5  C 0 2.2  2.76633663366337 0  6.28712871287129 0  L 345.792079207921 0  C 349.312871287129 0  352.079207920792 2.2  352.079207920792 5  L 352.079207920792 11.2827004219404  L 380.761248276723 22.7594936708874  L 352.079207920792 25.122362869199  L 352.079207920792 30  C 352.079207920792 32.8  349.312871287129 35  345.792079207921 35  L 6.28712871287129 35  C 2.76633663366337 35  0 32.8  0 30  Z " stroke-width="2" stroke="#797979" fill="none" transform="matrix(1 0 0 1 5 13 )" mask="url(#clip9)" />
  </g>
</svg>