<?xml version="1.0" encoding="utf-8"?>
<svg version="1.1" xmlns:xlink="http://www.w3.org/1999/xlink" width="369px" height="35px" xmlns="http://www.w3.org/2000/svg">
  <defs>
    <mask fill="white" id="clip8">
      <path d="M 27.9177631578947 30  L 27.9177631578947 27  L 0.245936532505975 27  L 27.9177631578947 13.1783439490464  L 27.9177631578947 5  C 27.9177631578947 2.2  30.5881578947368 0  33.9868421052632 0  L 362.930921052632 0  C 366.329605263158 0  369 2.2  369 5  L 369 30  C 369 32.8  366.329605263158 35  362.930921052632 35  L 33.9868421052632 35  C 30.5881578947368 35  27.9177631578947 32.8  27.9177631578947 30  Z " fill-rule="evenodd" />
    </mask>
  </defs>
  <g transform="matrix(1 0 0 1 -84 -4 )">
    <path d="M 27.9177631578947 30  L 27.9177631578947 27  L 0.245936532505975 27  L 27.9177631578947 13.1783439490464  L 27.9177631578947 5  C 27.9177631578947 2.2  30.5881578947368 0  33.9868421052632 0  L 362.930921052632 0  C 366.329605263158 0  369 2.2  369 5  L 369 30  C 369 32.8  366.329605263158 35  362.930921052632 35  L 33.9868421052632 35  C 30.5881578947368 35  27.9177631578947 32.8  27.9177631578947 30  Z " fill-rule="nonzero" fill="#ffffff" stroke="none" transform="matrix(1 0 0 1 84 4 )" />
    <path d="M 27.9177631578947 30  L 27.9177631578947 27  L 0.245936532505975 27  L 27.9177631578947 13.1783439490464  L 27.9177631578947 5  C 27.9177631578947 2.2  30.5881578947368 0  33.9868421052632 0  L 362.930921052632 0  C 366.329605263158 0  369 2.2  369 5  L 369 30  C 369 32.8  366.329605263158 35  362.930921052632 35  L 33.9868421052632 35  C 30.5881578947368 35  27.9177631578947 32.8  27.9177631578947 30  Z " stroke-width="2" stroke="#797979" fill="none" transform="matrix(1 0 0 1 84 4 )" mask="url(#clip8)" />
  </g>
</svg>