<?xml version="1.0" encoding="utf-8"?>
<svg version="1.1" xmlns:xlink="http://www.w3.org/1999/xlink" width="24px" height="26px" xmlns="http://www.w3.org/2000/svg">
  <g transform="matrix(1 0 0 1 -1044 -588 )">
    <path d="M 23.9744499645138 0.987926136363636  C 24.014194464159 1.24029356060606  23.9772888573456 1.48342803030303  23.8637331440738 1.71732954545455  L 12.9623846699787 25.3536931818182  C 12.7693399574166 25.7845643939394  12.4457061745919 26  11.9914833215046 26  C 11.9347054648687 26  11.8495386799148 25.9876893939394  11.735982966643 25.9630681818182  C 11.486160397445 25.9015151515152  11.2845990063875 25.7630208333333  11.1312987934705 25.5475852272727  C 10.9779985805536 25.3321496212121  10.9013484740951 25.0890151515152  11 24.8181818181818  L 11 14.1818181818182  L 1.09013484740951 14.1818181818182  C 0.840312278211498 14.1818181818182  0.616039744499645 14.0987215909091  0.417317246273953 13.9325284090909  C 0.218594748048261 13.7663352272727  0.0908445706174592 13.547821969697  0.0340667139815472 13.2769886363636  C -0.0227111426543648 13.0061553030303  0 12.7476325757576  0.102200141944642 12.5014204545455  C 0.204400283889283 12.2552083333333  0.369056068133428 12.0705492424242  0.596167494677076 11.9474431818182  L 22.3988644428673 0.129261363636364  C 22.5464868701207 0.0430871212121196  22.7111426543648 0  22.8928317955997 0  C 23.1994322214336 0  23.4549325762952 0.116950757575755  23.6593328601845 0.350852272727274  C 23.8296664300923 0.523200757575755  23.9347054648687 0.73555871212121  23.9744499645138 0.987926136363636  Z " fill-rule="nonzero" fill="#000000" stroke="none" transform="matrix(1 0 0 1 1044 588 )" />
  </g>
</svg>