<?xml version="1.0" encoding="utf-8"?>
<svg version="1.1" xmlns:xlink="http://www.w3.org/1999/xlink" width="52px" height="43px" xmlns="http://www.w3.org/2000/svg">
  <g transform="matrix(1 0 0 1 -21 0 )">
    <path d="M 47 0  C 61.56 0  73 9.46  73 21.5  C 73 33.54  61.56 43  47 43  C 32.44 43  21 33.54  21 21.5  C 21 9.46  32.44 0  47 0  Z " fill-rule="nonzero" fill="#e5dede" stroke="none" />
    <path d="M 47 0.5  C 61.28 0.5  72.5 9.74  72.5 21.5  C 72.5 33.26  61.28 42.5  47 42.5  C 32.72 42.5  21.5 33.26  21.5 21.5  C 21.5 9.74  32.72 0.5  47 0.5  Z " stroke-width="1" stroke="#f4e9e9" fill="none" />
  </g>
</svg>