<?xml version="1.0" encoding="utf-8"?>
<svg version="1.1" xmlns:xlink="http://www.w3.org/1999/xlink" width="52px" height="42px" xmlns="http://www.w3.org/2000/svg">
  <g transform="matrix(1 0 0 1 -386 0 )">
    <path d="M 412 0  C 426.56 0  438 9.24  438 21  C 438 32.76  426.56 42  412 42  C 397.44 42  386 32.76  386 21  C 386 9.24  397.44 0  412 0  Z " fill-rule="nonzero" fill="#e5dede" stroke="none" />
    <path d="M 412 0.5  C 426.28 0.5  437.5 9.52  437.5 21  C 437.5 32.48  426.28 41.5  412 41.5  C 397.72 41.5  386.5 32.48  386.5 21  C 386.5 9.52  397.72 0.5  412 0.5  Z " stroke-width="1" stroke="#f4e9e9" fill="none" />
  </g>
</svg>