<?xml version="1.0" encoding="utf-8"?>
<svg version="1.1" xmlns:xlink="http://www.w3.org/1999/xlink" width="312px" height="38px" xmlns="http://www.w3.org/2000/svg">
  <defs>
    <mask fill="white" id="clip19">
      <path d="M 288.394736842105 32.5714285714286  L 288.394736842105 29  L 311.792053663572 29  L 288.394736842105 14.3079162875361  L 288.394736842105 5.42857142857143  C 288.394736842105 2.38857142857143  286.136842105263 0  283.263157894737 0  L 5.13157894736843 0  C 2.25789473684209 0  0 2.38857142857143  0 5.42857142857143  L 0 32.5714285714286  C 0 35.6114285714286  2.25789473684209 38  5.13157894736843 38  L 283.263157894737 38  C 286.136842105263 38  288.394736842105 35.6114285714286  288.394736842105 32.5714285714286  Z " fill-rule="evenodd" />
    </mask>
  </defs>
  <g transform="matrix(1 0 0 1 0 -15 )">
    <path d="M 288.394736842105 32.5714285714286  L 288.394736842105 29  L 311.792053663572 29  L 288.394736842105 14.3079162875361  L 288.394736842105 5.42857142857143  C 288.394736842105 2.38857142857143  286.136842105263 0  283.263157894737 0  L 5.13157894736843 0  C 2.25789473684209 0  0 2.38857142857143  0 5.42857142857143  L 0 32.5714285714286  C 0 35.6114285714286  2.25789473684209 38  5.13157894736843 38  L 283.263157894737 38  C 286.136842105263 38  288.394736842105 35.6114285714286  288.394736842105 32.5714285714286  Z " fill-rule="nonzero" fill="#ffffff" stroke="none" transform="matrix(1 0 0 1 0 15 )" />
    <path d="M 288.394736842105 32.5714285714286  L 288.394736842105 29  L 311.792053663572 29  L 288.394736842105 14.3079162875361  L 288.394736842105 5.42857142857143  C 288.394736842105 2.38857142857143  286.136842105263 0  283.263157894737 0  L 5.13157894736843 0  C 2.25789473684209 0  0 2.38857142857143  0 5.42857142857143  L 0 32.5714285714286  C 0 35.6114285714286  2.25789473684209 38  5.13157894736843 38  L 283.263157894737 38  C 286.136842105263 38  288.394736842105 35.6114285714286  288.394736842105 32.5714285714286  Z " stroke-width="2" stroke="#797979" fill="none" transform="matrix(1 0 0 1 0 15 )" mask="url(#clip19)" />
  </g>
</svg>