<?xml version="1.0" encoding="utf-8"?>
<svg version="1.1" xmlns:xlink="http://www.w3.org/1999/xlink" width="333px" height="35px" xmlns="http://www.w3.org/2000/svg">
  <defs>
    <mask fill="white" id="clip20">
      <path d="M 333 30  L 333 5  C 333 2.2  330.582178217822 0  327.50495049505 0  L 30.7722772277228 0  C 27.6950495049505 0  25.2772277227723 2.2  25.2772277227723 5  L 25.2772277227723 11.2827004219404  L 0.208672766013535 22.7594936708874  L 25.2772277227723 25.122362869199  L 25.2772277227723 30  C 25.2772277227723 32.8  27.6950495049505 35  30.7722772277228 35  L 327.50495049505 35  C 330.582178217822 35  333 32.8  333 30  Z " fill-rule="evenodd" />
    </mask>
  </defs>
  <g transform="matrix(1 0 0 1 -43 -11 )">
    <path d="M 333 30  L 333 5  C 333 2.2  330.582178217822 0  327.50495049505 0  L 30.7722772277228 0  C 27.6950495049505 0  25.2772277227723 2.2  25.2772277227723 5  L 25.2772277227723 11.2827004219404  L 0.208672766013535 22.7594936708874  L 25.2772277227723 25.122362869199  L 25.2772277227723 30  C 25.2772277227723 32.8  27.6950495049505 35  30.7722772277228 35  L 327.50495049505 35  C 330.582178217822 35  333 32.8  333 30  Z " fill-rule="nonzero" fill="#ffffff" stroke="none" transform="matrix(1 0 0 1 43 11 )" />
    <path d="M 333 30  L 333 5  C 333 2.2  330.582178217822 0  327.50495049505 0  L 30.7722772277228 0  C 27.6950495049505 0  25.2772277227723 2.2  25.2772277227723 5  L 25.2772277227723 11.2827004219404  L 0.208672766013535 22.7594936708874  L 25.2772277227723 25.122362869199  L 25.2772277227723 30  C 25.2772277227723 32.8  27.6950495049505 35  30.7722772277228 35  L 327.50495049505 35  C 330.582178217822 35  333 32.8  333 30  Z " stroke-width="2" stroke="#797979" fill="none" transform="matrix(1 0 0 1 43 11 )" mask="url(#clip20)" />
  </g>
</svg>