<?xml version="1.0" encoding="utf-8"?>
<svg version="1.1" xmlns:xlink="http://www.w3.org/1999/xlink" width="33px" height="34px" xmlns="http://www.w3.org/2000/svg">
  <g transform="matrix(1 0 0 1 -936 -97 )">
    <path d="M 32.9648687012065 1.29190340909091  C 33.0195173882186 1.62192234848485  32.9687721788503 1.93986742424242  32.8126330731015 2.24573863636364  L 17.8232789212207 33.1548295454545  C 17.5578424414478 33.7182765151515  17.1128459900639 34  16.4882895670688 34  C 16.4102200141945 34  16.2931156848829 33.9839015151515  16.1369765791341 33.9517045454545  C 15.7934705464869 33.8712121212121  15.5163236337828 33.6901041666667  15.305535841022 33.4083806818182  C 15.0947480482612 33.1266571969697  14.9893541518808 32.8087121212121  15 32.4545454545455  L 15 18  L 1.49893541518808 18  C 1.15542938254081 18.5454545454545  0.847054648687012 18.4367897727273  0.573811213626686 18.2194602272727  C 0.300567778566359 18.0021306818182  0.124911284599006 17.7163825757576  0.0468417317246274 17.3622159090909  C -0.0312278211497516 17.0080492424242  0 16.6699810606061  0.140525195173882 16.3480113636364  C 0.281050390347764 16.0260416666667  0.507452093683463 15.7845643939394  0.819730305180979 15.6235795454545  L 30.7984386089425 0.169034090909092  C 31.0014194464159 0.0563446969696948  31.2278211497516 0  31.4776437189496 0  C 31.8992193044713 0  32.250532292406 0.152935606060603  32.5315826827537 0.45880681818182  C 32.7657913413769 0.684185606060603  32.9102200141945 0.961884469696967  32.9648687012065 1.29190340909091  Z " fill-rule="nonzero" fill="#000000" stroke="none" transform="matrix(1 0 0 1 936 97 )" />
  </g>
</svg>