<?xml version="1.0" encoding="utf-8"?>
<svg version="1.1" xmlns:xlink="http://www.w3.org/1999/xlink" width="43px" height="43px" xmlns="http://www.w3.org/2000/svg">
  <g transform="matrix(1 0 0 1 0 -6 )">
    <path d="M 21.5 6  C 33.54 6  43 15.46  43 27.5  C 43 39.54  33.54 49  21.5 49  C 9.46 49  0 39.54  0 27.5  C 0 15.46  9.46 6  21.5 6  Z " fill-rule="nonzero" fill="#e5dede" stroke="none" />
    <path d="M 21.5 6.5  C 33.26 6.5  42.5 15.74  42.5 27.5  C 42.5 39.26  33.26 48.5  21.5 48.5  C 9.74 48.5  0.5 39.26  0.5 27.5  C 0.5 15.74  9.74 6.5  21.5 6.5  Z " stroke-width="1" stroke="#f4e9e9" fill="none" />
  </g>
</svg>