<?xml version="1.0" encoding="utf-8"?>
<svg version="1.1" xmlns:xlink="http://www.w3.org/1999/xlink" width="96px" height="121px" xmlns="http://www.w3.org/2000/svg">
  <g transform="matrix(1 0 0 1 -480 -82 )">
    <path d="M 480 82  L 576 82  L 576 203  L 480 203  L 480 82  " fill-rule="nonzero" fill="#cccccc" stroke="none" />
    <path d="M 487 89  L 569 89  L 569 196  L 487 196  L 487 89  " fill-rule="nonzero" fill="#ffffff" stroke="none" />
    <path d="M 537.12 114.55  C 533.088 114.55  529.92 111.382  529.92 107.35  C 529.92 103.318  533.088 100.15  537.12 100.15  C 541.152 100.15  544.32 103.318  544.32 107.35  C 544.32 111.382  541.152 114.55  537.12 114.55  " fill-rule="nonzero" fill="#cccccc" stroke="none" />
    <path d="M 490 194  L 490 137.9  L 509.25 112.4  L 536.2 132.8  L 551.6 127.7  L 567 132.8  L 567 194  L 490 194  " fill-rule="nonzero" fill="#169bd5" stroke="none" />
  </g>
</svg>