<?xml version="1.0" encoding="utf-8"?>
<svg version="1.1" xmlns:xlink="http://www.w3.org/1999/xlink" width="295px" height="119px" viewBox="281 226  295 119" xmlns="http://www.w3.org/2000/svg">
  <path d="M 281.5 231  A 4.5 4.5 0 0 1 286 226.5 L 571 226.5  A 4.5 4.5 0 0 1 575.5 231 L 575.5 340  A 4.5 4.5 0 0 1 571 344.5 L 286 344.5  A 4.5 4.5 0 0 1 281.5 340 L 281.5 231  Z " fill-rule="nonzero" fill="#f6f6f6" stroke="none" />
  <path d="M 281.5 231  A 4.5 4.5 0 0 1 286 226.5 L 571 226.5  A 4.5 4.5 0 0 1 575.5 231 L 575.5 340  A 4.5 4.5 0 0 1 571 344.5 L 286 344.5  A 4.5 4.5 0 0 1 281.5 340 L 281.5 231  Z " stroke-width="1" stroke="#c5c5c5" fill="none" />
</svg>