<?xml version="1.0" encoding="utf-8"?>
<svg version="1.1" xmlns:xlink="http://www.w3.org/1999/xlink" width="139px" height="25px" viewBox="117 234  139 25" xmlns="http://www.w3.org/2000/svg">
  <path d="M 117.5 239  A 4.5 4.5 0 0 1 122 234.5 L 251 234.5  A 4.5 4.5 0 0 1 255.5 239 L 255.5 254  A 4.5 4.5 0 0 1 251 258.5 L 122 258.5  A 4.5 4.5 0 0 1 117.5 254 L 117.5 239  Z " fill-rule="nonzero" fill="#f6f6f6" stroke="none" />
  <path d="M 117.5 239  A 4.5 4.5 0 0 1 122 234.5 L 251 234.5  A 4.5 4.5 0 0 1 255.5 239 L 255.5 254  A 4.5 4.5 0 0 1 251 258.5 L 122 258.5  A 4.5 4.5 0 0 1 117.5 254 L 117.5 239  Z " stroke-width="1" stroke="#c5c5c5" fill="none" />
</svg>