<?xml version="1.0" encoding="utf-8"?>
<svg version="1.1" xmlns:xlink="http://www.w3.org/1999/xlink" width="1067px" height="599px" xmlns="http://www.w3.org/2000/svg">
  <defs>
    <filter x="227px" y="93px" width="1067px" height="599px" filterUnits="userSpaceOnUse" id="filter10">
      <feOffset dx="2" dy="0" in="SourceAlpha" result="shadowOffsetInner" />
      <feGaussianBlur stdDeviation="2.5" in="shadowOffsetInner" result="shadowGaussian" />
      <feComposite in2="shadowGaussian" operator="atop" in="SourceAlpha" result="shadowComposite" />
      <feColorMatrix type="matrix" values="0 0 0 0 0  0 0 0 0 0  0 0 0 0 0  0 0 0 0.349019607843137 0  " in="shadowComposite" />
    </filter>
    <g id="widget11">
      <path d="M 230.5 103  A 4.5 4.5 0 0 1 235 98.5 L 1282 98.5  A 4.5 4.5 0 0 1 1286.5 103 L 1286.5 682  A 4.5 4.5 0 0 1 1282 686.5 L 235 686.5  A 4.5 4.5 0 0 1 230.5 682 L 230.5 103  Z " fill-rule="nonzero" fill="#24dddd" stroke="none" fill-opacity="0" />
      <path d="M 230.5 103  A 4.5 4.5 0 0 1 235 98.5 L 1282 98.5  A 4.5 4.5 0 0 1 1286.5 103 L 1286.5 682  A 4.5 4.5 0 0 1 1282 686.5 L 235 686.5  A 4.5 4.5 0 0 1 230.5 682 L 230.5 103  Z " stroke-width="1" stroke="#4d7573" fill="none" />
    </g>
  </defs>
  <g transform="matrix(1 0 0 1 -227 -93 )">
    <use xlink:href="#widget11" filter="url(#filter10)" />
    <use xlink:href="#widget11" />
  </g>
</svg>