<?xml version="1.0" encoding="utf-8"?>
<svg version="1.1" xmlns:xlink="http://www.w3.org/1999/xlink" width="478px" height="32px" viewBox="232 217  478 32" xmlns="http://www.w3.org/2000/svg">
  <path d="M 232.5 222  A 4.5 4.5 0 0 1 237 217.5 L 705 217.5  A 4.5 4.5 0 0 1 709.5 222 L 709.5 244  A 4.5 4.5 0 0 1 705 248.5 L 237 248.5  A 4.5 4.5 0 0 1 232.5 244 L 232.5 222  Z " fill-rule="nonzero" fill="#f6f6f6" stroke="none" />
  <path d="M 232.5 222  A 4.5 4.5 0 0 1 237 217.5 L 705 217.5  A 4.5 4.5 0 0 1 709.5 222 L 709.5 244  A 4.5 4.5 0 0 1 705 248.5 L 237 248.5  A 4.5 4.5 0 0 1 232.5 244 L 232.5 222  Z " stroke-width="1" stroke="#c5c5c5" fill="none" />
</svg>