<?xml version="1.0" encoding="utf-8"?>
<svg version="1.1" xmlns:xlink="http://www.w3.org/1999/xlink" width="574px" height="232px" viewBox="136 493  574 232" xmlns="http://www.w3.org/2000/svg">
  <path d="M 136.5 498  A 4.5 4.5 0 0 1 141 493.5 L 705 493.5  A 4.5 4.5 0 0 1 709.5 498 L 709.5 720  A 4.5 4.5 0 0 1 705 724.5 L 141 724.5  A 4.5 4.5 0 0 1 136.5 720 L 136.5 498  Z " fill-rule="nonzero" fill="#f6f6f6" stroke="none" />
  <path d="M 136.5 498  A 4.5 4.5 0 0 1 141 493.5 L 705 493.5  A 4.5 4.5 0 0 1 709.5 498 L 709.5 720  A 4.5 4.5 0 0 1 705 724.5 L 141 724.5  A 4.5 4.5 0 0 1 136.5 720 L 136.5 498  Z " stroke-width="1" stroke="#c5c5c5" fill="none" />
</svg>