<?xml version="1.0" encoding="utf-8"?>
<svg version="1.1" xmlns:xlink="http://www.w3.org/1999/xlink" width="26px" height="27px" xmlns="http://www.w3.org/2000/svg">
  <g transform="matrix(1 0 0 1 -606 -18 )">
    <path d="M 616.448747082685 27.8282705759382  L 619 19.6743234307331  L 621.551252917315 27.8282705759382  L 629.871002170747 27.8282705759382  L 623.140183635782 32.9065821019517  L 625.698957842362 41.0845677086953  L 619 36.0302946442203  L 612.301042157638 41.0845677086953  L 614.859816364218 32.9065821019516  L 608.128997829253 27.8282705759382  L 616.448747082685 27.8282705759382  Z " fill-rule="nonzero" fill="#ffffff" stroke="none" />
    <path d="M 616.081318152233 27.3282705759382  L 619 18  L 621.918681847767 27.3282705759382  L 631.363734711837 27.3282705759382  L 623.722526432035 33.0934588481236  L 626.641208279802 42.4217294240618  L 619 36.6565411518764  L 611.358791720198 42.4217294240618  L 614.277473567965 33.0934588481236  L 606.636265288163 27.3282705759382  L 616.081318152233 27.3282705759382  Z M 619 21.3486468614661  L 616.816176013138 28.3282705759382  L 609.621730370343 28.3282705759382  L 615.442159160471 32.7197053557797  L 613.243292595079 39.7474059933287  L 619 35.4040481365641  L 624.756707404921 39.7474059933287  L 622.557840839529 32.7197053557797  L 628.378269629657 28.3282705759382  L 621.183823986862 28.3282705759382  L 619 21.3486468614661  Z " fill-rule="nonzero" fill="#f0b621" stroke="none" />
  </g>
</svg>