<?xml version="1.0" encoding="utf-8"?>
<svg version="1.1" xmlns:xlink="http://www.w3.org/1999/xlink" width="26px" height="27px" xmlns="http://www.w3.org/2000/svg">
  <g transform="matrix(1 0 0 1 -569 -18 )">
    <path d="M 579.448747082685 27.8282705759382  L 582 19.6743234307331  L 584.551252917315 27.8282705759382  L 592.871002170747 27.8282705759382  L 586.140183635782 32.9065821019517  L 588.698957842362 41.0845677086953  L 582 36.0302946442203  L 575.301042157638 41.0845677086953  L 577.859816364218 32.9065821019516  L 571.128997829253 27.8282705759382  L 579.448747082685 27.8282705759382  Z " fill-rule="nonzero" fill="#f0b621" stroke="none" />
    <path d="M 579.081318152233 27.3282705759382  L 582 18  L 584.918681847767 27.3282705759382  L 594.363734711837 27.3282705759382  L 586.722526432035 33.0934588481236  L 589.641208279802 42.4217294240618  L 582 36.6565411518764  L 574.358791720198 42.4217294240618  L 577.277473567965 33.0934588481236  L 569.636265288163 27.3282705759382  L 579.081318152233 27.3282705759382  Z M 582 21.3486468614661  L 579.816176013138 28.3282705759382  L 572.621730370343 28.3282705759382  L 578.442159160471 32.7197053557797  L 576.243292595079 39.7474059933287  L 582 35.4040481365641  L 587.756707404921 39.7474059933287  L 585.557840839529 32.7197053557797  L 591.378269629657 28.3282705759382  L 584.183823986862 28.3282705759382  L 582 21.3486468614661  Z " fill-rule="nonzero" fill="#f0b621" stroke="none" />
  </g>
</svg>