<?xml version="1.0" encoding="utf-8"?>
<svg version="1.1" xmlns:xlink="http://www.w3.org/1999/xlink" width="31px" height="19px" xmlns="http://www.w3.org/2000/svg">
  <g transform="matrix(1 0 0 1 -429 -292 )">
    <path d="M 30.44 2.62289562289562  C 30.8133333333333 2.92143658810325  31 3.28395061728395  31 3.71043771043771  C 31 4.13692480359147  30.8133333333333 4.49943883277216  30.44 4.7979797979798  L 15.96 16.3771043771044  L 13.24 18.5521885521886  C 12.8666666666667 18.8507295173962  12.4133333333333 19  11.88 19  C 11.3466666666667 19  10.8933333333333 18.8507295173962  10.52 18.5521885521886  L 7.8 16.3771043771044  L 0.56 10.5875420875421  C 0.186666666666667 10.2890011223345  0 9.92648709315376  0 9.5  C 0 9.07351290684624  0.186666666666667 8.71099887766554  0.56 8.41245791245791  L 3.28 6.23737373737374  C 3.65333333333333 5.9388327721661  4.10666666666667 5.78956228956229  4.64 5.78956228956229  C 5.17333333333333 5.78956228956229  5.62666666666667 5.9388327721661  6 6.23737373737374  L 11.88 10.9553872053872  L 25 0.447811447811448  C 25.3733333333333 0.149270482603815  25.8266666666667 0  26.36 0  C 26.8933333333333 0  27.3466666666667 0.149270482603815  27.72 0.447811447811448  L 30.44 2.62289562289562  Z " fill-rule="nonzero" fill="#ff3a3a" stroke="none" transform="matrix(1 0 0 1 429 292 )" />
  </g>
</svg>