<?xml version="1.0" encoding="utf-8"?>
<svg version="1.1" xmlns:xlink="http://www.w3.org/1999/xlink" width="31px" height="18px" xmlns="http://www.w3.org/2000/svg">
  <g transform="matrix(1 0 0 1 -525 -293 )">
    <path d="M 30.44 2.48484848484849  C 30.8133333333333 2.76767676767677  31 3.11111111111111  31 3.51515151515152  C 31 3.91919191919192  30.8133333333333 4.26262626262626  30.44 4.54545454545455  L 15.96 15.5151515151515  L 13.24 17.5757575757576  C 12.8666666666667 17.8585858585859  12.4133333333333 18  11.88 18  C 11.3466666666667 18  10.8933333333333 17.8585858585859  10.52 17.5757575757576  L 7.8 15.5151515151515  L 0.56 10.030303030303  C 0.186666666666667 9.74747474747475  0 9.4040404040404  0 9  C 0 8.5959595959596  0.186666666666667 8.25252525252525  0.56 7.96969696969697  L 3.28 5.90909090909091  C 3.65333333333333 5.62626262626263  4.10666666666667 5.48484848484848  4.64 5.48484848484848  C 5.17333333333333 5.48484848484848  5.62666666666667 5.62626262626263  6 5.90909090909091  L 11.88 10.3787878787879  L 25 0.424242424242424  C 25.3733333333333 0.141414141414141  25.8266666666667 0  26.36 0  C 26.8933333333333 0  27.3466666666667 0.141414141414141  27.72 0.424242424242424  L 30.44 2.48484848484849  Z " fill-rule="nonzero" fill="#ff3a3a" stroke="none" transform="matrix(1 0 0 1 525 293 )" />
  </g>
</svg>